<svg width="24" height="32" viewBox="0 0 24 32" fill="none" xmlns="http://www.w3.org/2000/svg">
<path d="M23.3726 15.0288C23.1069 13.1486 21.9778 11.8342 21.1642 11.0189C19.8025 9.65455 18.4408 8.27357 17.0626 6.89256C15.4684 5.27863 13.8577 3.68135 12.2635 2.06741C10.2709 0.0707997 7.82986 -0.49491 5.18957 0.436842C2.49945 1.38524 0.805702 3.59815 0.755892 6.24366C0.739274 7.09224 0.722656 8.15709 0.722656 9.27186C0.722656 9.73773 0.955131 9.95405 0.955131 9.95405L2.59909 11.6013C2.79837 11.7676 3.1969 11.7011 3.1969 11.4681C3.1969 9.65455 3.21349 7.64129 3.23009 6.2603C3.2633 4.66302 4.29286 3.34857 6.00325 2.74959C7.74683 2.13397 9.17492 2.46674 10.5034 3.7978C12.0975 5.41175 13.7082 7.00904 15.3024 8.62296C16.664 10.004 18.0257 11.3683 19.4039 12.7493C20.3172 13.6644 20.7822 14.4797 20.915 15.3615C21.1143 16.7592 20.7491 17.8906 19.8191 18.8556C18.4408 20.2532 17.0293 21.6675 15.6677 23.0153C13.9407 24.7289 12.1639 26.5092 10.4369 28.2895C9.39077 29.3711 7.79664 29.7871 6.26894 29.3546C4.94048 28.9885 3.94415 28.0567 3.51242 26.842C3.36297 26.4428 2.93121 26.5759 2.81495 26.6756L1.61936 27.8738C1.61936 27.8738 1.51974 27.9901 1.50313 28.1399C1.48653 28.3063 1.50313 28.4394 1.58617 28.5725C2.41645 30.1032 3.82791 31.2346 5.60471 31.7339C6.21911 31.9002 6.85013 32 7.48114 32C9.25794 32 10.9683 31.3011 12.2137 30.02C13.9241 28.2564 15.7009 26.4761 17.4113 24.7623C18.7729 23.398 20.2011 21.9836 21.5793 20.5694C23.0572 19.1052 23.6716 17.1751 23.3726 15.0288Z" fill="#F5F5F7"/>
</svg>
