<svg width="203" height="38" viewBox="0 0 203 38" fill="none" xmlns="http://www.w3.org/2000/svg">
<path d="M0.609375 1.12203V36.6853H10.6383V25.3675H20.6054C25.5579 25.3675 29.52 24.2455 32.5534 22.0502C35.5869 19.8062 37.0726 16.8792 37.0726 13.2204C37.0726 9.5616 35.5869 6.63458 32.5534 4.43932C29.5819 2.24405 25.6198 1.12203 20.6054 1.12203H0.609375ZM10.6383 18.6354V8.14687H19.2434C24.0721 8.14687 26.4865 9.8543 26.4865 13.3179C26.4865 16.8792 24.0721 18.6354 19.2434 18.6354H10.6383Z" fill="#F5F5F7"/>
<path d="M47.9687 36.6853V25.5139C47.9687 19.7086 51.4355 16.4889 58.6168 16.5377V10.0494C53.4785 10.0494 50.0117 11.8544 48.3402 15.5132H47.9687L46.7925 10.5373H38.5589V36.6853H47.9687Z" fill="#F5F5F7"/>
<path d="M73.2452 10.0494C68.2307 10.0494 64.2068 11.3178 61.1733 13.8058C58.1399 16.2938 56.5922 19.5623 56.5922 23.6113C56.5922 27.6603 58.1399 30.9289 61.1733 33.4168C64.2068 35.9048 68.2307 37.1244 73.2452 37.1244C78.1978 37.1244 82.2217 35.9048 85.2552 33.4168C88.2886 30.9289 89.8363 27.6603 89.8363 23.6601C89.8363 19.611 88.2886 16.3425 85.2552 13.8546C82.2217 11.3178 78.1978 10.0494 73.2452 10.0494ZM66.1878 23.6113C66.1878 19.1232 68.8498 16.1962 73.1214 16.1962C77.5787 16.1962 80.1788 19.0256 80.1788 23.5625C80.1788 28.0994 77.5787 31.0264 73.1833 31.0264C68.9117 31.0264 66.1878 28.2458 66.1878 23.6113Z" fill="#F5F5F7"/>
<path d="M104.091 10.5373V9.2689C104.091 7.12242 105.639 6.04918 108.672 6.04918C109.601 6.04918 110.467 6.14674 111.396 6.2931V0.439053C110.158 0.146352 108.61 0 106.753 0C99.2621 0 94.6191 2.92702 94.6191 8.73228V10.5373H88.4284V16.5377H94.6191V36.6853H104.091V16.5377H115.729V36.6853H125.201V10.5373H104.091ZM115.729 7.80539H125.201V0.585406H115.729V7.80539Z" fill="#F5F5F7"/>
<path d="M149.629 27.0749C149.196 29.4653 146.967 31.0752 143.501 31.0752C139.229 31.0752 136.629 28.5385 136.629 23.6601C136.629 18.9769 138.919 16.1962 143.562 16.1962C146.72 16.1962 149.072 17.4646 149.629 20.0013H158.977C158.668 16.9767 157.12 14.5863 154.272 12.7813C151.487 10.9763 147.958 10.0494 143.686 10.0494C138.672 10.0494 134.648 11.3178 131.614 13.8058C128.581 16.2938 127.033 19.5623 127.033 23.6113C127.033 27.6603 128.519 30.9776 131.552 33.4656C134.586 35.9536 138.548 37.1732 143.562 37.1732C147.958 37.1732 151.548 36.2463 154.396 34.3925C157.244 32.5387 158.792 30.0995 158.977 27.0749H149.629Z" fill="#F5F5F7"/>
<path d="M175.31 10.0494C170.295 10.0494 166.271 11.3178 163.238 13.8058C160.204 16.2938 158.657 19.5623 158.657 23.6113C158.657 27.6603 160.204 30.9289 163.238 33.4168C166.271 35.9048 170.295 37.1244 175.31 37.1244C180.262 37.1244 184.286 35.9048 187.32 33.4168C190.353 30.9289 191.901 27.6603 191.901 23.6601C191.901 19.611 190.353 16.3425 187.32 13.8546C184.286 11.3178 180.262 10.0494 175.31 10.0494ZM168.252 23.6113C168.252 19.1232 170.914 16.1962 175.186 16.1962C179.643 16.1962 182.243 19.0256 182.243 23.5625C182.243 28.0994 179.643 31.0264 175.248 31.0264C170.976 31.0264 168.252 28.2458 168.252 23.6113Z" fill="#F5F5F7"/>
<path d="M202.998 36.6854V28.6849H193.836V36.6854H202.998Z" fill="#F5F5F7"/>
</svg>
