<svg width="10" height="15" viewBox="0 0 10 15" fill="none" xmlns="http://www.w3.org/2000/svg">
<path d="M8.65567 8.98513C9.22026 8.4028 9.43614 7.70398 9.3199 6.88869C9.23686 6.27307 8.88814 5.79056 8.45639 5.35796C7.09473 3.97697 5.73308 2.6126 4.35483 1.23162C3.59095 0.466243 2.71086 0.249945 1.68132 0.616003C0.684988 0.965399 0.0373707 1.76405 0.0207651 2.76236C-0.0124461 4.24317 0.00414329 7.22147 0.00414329 7.22147C0.00414329 8.46936 0.00414329 9.71725 0.00414329 10.9652C0.00414329 11.3644 0.00414329 11.7804 0.0871713 12.1631C0.518916 14.0765 2.97655 14.6922 4.30499 13.3277C5.76629 11.8802 7.22759 10.4492 8.65567 8.98513Z" fill="#F5F5F7"/>
</svg>
